<svg width="87" height="132" viewBox="0 0 87 132" fill="none"
	xmlns="http://www.w3.org/2000/svg">
	<path d="M38.8764 27.25C38.0725 25.8577 38.0725 24.1423 38.8764 22.75L48.4896 6.09936C49.2935 4.70706 50.7791 3.84936 52.3868 3.84936H71.6133C73.221 3.84936 74.7065 4.70706 75.5104 6.09936L85.1236 22.75C85.9275 24.1423 85.9275 25.8577 85.1236 27.25L75.5104 43.9006C74.7065 45.2929 73.2209 46.1506 71.6133 46.1506H52.3868C50.7791 46.1506 49.2935 45.2929 48.4896 43.9006L38.8764 27.25Z" fill="#EBF7FF" stroke="#0068B3"/>
	<path d="M1.87639 48.25C1.07254 46.8577 1.07254 45.1423 1.87639 43.75L11.4896 27.0994C12.2935 25.7071 13.7791 24.8494 15.3868 24.8494H34.6133C36.221 24.8494 37.7065 25.7071 38.5104 27.0994L48.1236 43.75C48.9275 45.1423 48.9275 46.8577 48.1236 48.25L38.5104 64.9006C37.7065 66.2929 36.2209 67.1506 34.6133 67.1506H15.3868C13.7791 67.1506 12.2935 66.2929 11.4896 64.9006L1.87639 48.25Z" fill="#EBF7FF" stroke="#0068B3"/>
	<path d="M1.87639 90.5994C1.07254 89.2071 1.07254 87.4917 1.87639 86.0994L11.4896 69.4487C12.2935 68.0564 13.7791 67.1987 15.3868 67.1987H34.6133C36.221 67.1987 37.7065 68.0564 38.5104 69.4487L48.1236 86.0994C48.9275 87.4917 48.9275 89.2071 48.1236 90.5994L38.5104 107.25C37.7065 108.642 36.2209 109.5 34.6133 109.5H15.3868C13.7791 109.5 12.2935 108.642 11.4896 107.25L1.87639 90.5994Z" fill="#EBF7FF" stroke="#0068B3"/>
	<path d="M38.4963 111.901C37.6925 110.508 37.6925 108.793 38.4963 107.401L48.1096 90.75C48.9134 89.3577 50.399 88.5 52.0067 88.5H71.2332C72.8409 88.5 74.3265 89.3577 75.1303 90.75L84.7436 107.401C85.5474 108.793 85.5474 110.508 84.7436 111.901L75.1303 128.551C74.3265 129.944 72.8409 130.801 71.2332 130.801H52.0067C50.399 130.801 48.9134 129.944 48.1096 128.551L38.4963 111.901Z" fill="#EBF7FF" stroke="#0068B3"/>
</svg>
