<svg width="106" height="176" viewBox="0 0 106 176" fill="none"
	xmlns="http://www.w3.org/2000/svg">
	<path d="M20.6403 58.25C21.4441 56.8577 22.9297 56 24.5374 56L43.7639 56C45.3716 56 46.8571 56.8577 47.661 58.25L57.2742 74.9006C58.0781 76.2929 58.0781 78.0083 57.2742 79.4006L47.661 96.0513C46.8572 97.4436 45.3716 98.3013 43.7639 98.3013L24.5374 98.3013C22.9297 98.3013 21.4441 97.4436 20.6403 96.0513L11.027 79.4006C10.2232 78.0083 10.2232 76.2929 11.027 74.9006L20.6403 58.25Z" fill="#EBF7FF" stroke="#0068B3"/>
	<path d="M20.6403 15.25C21.4441 13.8577 22.9297 13 24.5374 13L43.7639 13C45.3716 13 46.8571 13.8577 47.661 15.25L57.2742 31.9006C58.0781 33.2929 58.0781 35.0083 57.2742 36.4006L47.661 53.0513C46.8572 54.4436 45.3716 55.3013 43.7639 55.3013L24.5374 55.3013C22.9297 55.3013 21.4441 54.4436 20.6403 53.0513L11.027 36.4006C10.2232 35.0083 10.2232 33.2929 11.027 31.9006L20.6403 15.25Z" fill="#EBF7FF" stroke="#0068B3"/>
	<path d="M57.6403 79.25C58.4441 77.8577 59.9297 77 61.5374 77L80.7639 77C82.3716 77 83.8571 77.8577 84.661 79.25L94.2742 95.9006C95.0781 97.2929 95.0781 99.0083 94.2742 100.401L84.661 117.051C83.8572 118.444 82.3716 119.301 80.7639 119.301L61.5374 119.301C59.9297 119.301 58.4441 118.444 57.6403 117.051L48.027 100.401C47.2232 99.0083 47.2232 97.2929 48.027 95.9006L57.6403 79.25Z" fill="#EBF7FF" stroke="#0068B3"/>
	<path d="M56.6403 122.25C57.4441 120.858 58.9297 120 60.5374 120L79.7639 120C81.3716 120 82.8571 120.858 83.661 122.25L93.2742 138.901C94.0781 140.293 94.0781 142.008 93.2742 143.401L83.661 160.051C82.8572 161.444 81.3716 162.301 79.7639 162.301L60.5374 162.301C58.9297 162.301 57.4441 161.444 56.6403 160.051L47.027 143.401C46.2232 142.008 46.2232 140.293 47.027 138.901L56.6403 122.25Z" fill="#EBF7FF" stroke="#0068B3"/>
	<path d="M56.6403 122.25C57.4441 120.858 58.9297 120 60.5374 120L79.7639 120C81.3716 120 82.8571 120.858 83.661 122.25L93.2742 138.901C94.0781 140.293 94.0781 142.008 93.2742 143.401L83.661 160.051C82.8572 161.444 81.3716 162.301 79.7639 162.301L60.5374 162.301C58.9297 162.301 57.4441 161.444 56.6403 160.051L47.027 143.401C46.2232 142.008 46.2232 140.293 47.027 138.901L56.6403 122.25Z" fill="#EBF7FF" stroke="#0068B3"/>
</svg>
