<svg width="106" height="155" viewBox="0 0 106 155" fill="none" xmlns="http://www.w3.org/2000/svg">
<path d="M20.6403 15.25C21.4441 13.8577 22.9297 13 24.5374 13L43.7639 13C45.3716 13 46.8571 13.8577 47.661 15.25L57.2742 31.9006C58.0781 33.2929 58.0781 35.0083 57.2742 36.4006L47.661 53.0513C46.8572 54.4436 45.3716 55.3013 43.7639 55.3013L24.5374 55.3013C22.9297 55.3013 21.4441 54.4436 20.6403 53.0513L11.027 36.4006C10.2232 35.0083 10.2232 33.2929 11.027 31.9006L20.6403 15.25Z" fill="#EBF7FF" stroke="#0068B3"/>
<path d="M20.6403 58.25C21.4441 56.8577 22.9297 56 24.5374 56L43.7639 56C45.3716 56 46.8571 56.8577 47.661 58.25L57.2742 74.9006C58.0781 76.2929 58.0781 78.0083 57.2742 79.4006L47.661 96.0513C46.8572 97.4436 45.3716 98.3013 43.7639 98.3013L24.5374 98.3013C22.9297 98.3013 21.4441 97.4436 20.6403 96.0513L11.027 79.4006C10.2232 78.0083 10.2232 76.2929 11.027 74.9006L20.6403 58.25Z" fill="#EBF7FF" stroke="#0068B3"/>
<path d="M20.6403 101.25C21.4441 99.8577 22.9297 99 24.5374 99L43.7639 99C45.3716 99 46.8571 99.8577 47.661 101.25L57.2742 117.901C58.0781 119.293 58.0781 121.008 57.2742 122.401L47.661 139.051C46.8572 140.444 45.3716 141.301 43.7639 141.301L24.5374 141.301C22.9297 141.301 21.4441 140.444 20.6403 139.051L11.027 122.401C10.2232 121.008 10.2232 119.293 11.027 117.901L20.6403 101.25Z" fill="#EBF7FF" stroke="#0068B3"/>
<path d="M57.6403 80.25C58.4441 78.8577 59.9297 78 61.5374 78L80.7639 78C82.3716 78 83.8571 78.8577 84.661 80.25L94.2742 96.9006C95.0781 98.2929 95.0781 100.008 94.2742 101.401L84.661 118.051C83.8572 119.444 82.3716 120.301 80.7639 120.301L61.5374 120.301C59.9297 120.301 58.4441 119.444 57.6403 118.051L48.027 101.401C47.2232 100.008 47.2232 98.2929 48.027 96.9006L57.6403 80.25Z" fill="#EBF7FF" stroke="#0068B3"/>
</svg>
