<svg width="122" height="137" viewBox="0 0 122 137" fill="none"
	xmlns="http://www.w3.org/2000/svg">
	<path d="M2.02702 22.75L11.6403 6.09936C12.4441 4.70706 13.9297 3.84936 15.5374 3.84936H34.7639C36.3716 3.84936 37.8572 4.70706 38.661 6.09936L48.2743 22.75C49.0781 24.1423 49.0781 25.8577 48.2743 27.25L38.661 43.9006C37.8572 45.2929 36.3716 46.1506 34.7639 46.1506H15.5374C13.9297 46.1506 12.4441 45.2929 11.6403 43.9006L2.02702 27.25C1.22318 25.8577 1.22318 24.1423 2.02702 22.75Z" fill="#EBF7FF" stroke="#0068B3"/>
	<path d="M1.87639 65.5994L11.4896 48.9487C12.2935 47.5564 13.7791 46.6987 15.3868 46.6987H34.6133C36.2209 46.6987 37.7065 47.5564 38.5104 48.9487L48.1236 65.5994C48.9275 66.9917 48.9275 68.7071 48.1236 70.0994L38.5104 86.75C37.7065 88.1423 36.2209 89 34.6133 89H15.3868C13.7791 89 12.2935 88.1423 11.4896 86.75L1.87639 70.0994C1.07254 68.7071 1.07254 66.9917 1.87639 65.5994Z" fill="#EBF7FF" stroke="#0068B3"/>
	<path d="M37.8764 87.5994L47.4896 70.9487C48.2935 69.5564 49.7791 68.6987 51.3868 68.6987H70.6133C72.2209 68.6987 73.7065 69.5564 74.5104 70.9487L84.1236 87.5994C84.9275 88.9917 84.9275 90.7071 84.1236 92.0994L74.5104 108.75C73.7065 110.142 72.2209 111 70.6133 111H51.3868C49.7791 111 48.2935 110.142 47.4896 108.75L37.8764 92.0994C37.0725 90.7071 37.0725 88.9917 37.8764 87.5994Z" fill="#EBF7FF" stroke="#0068B3"/>
	<path d="M73.8764 109.599L83.4896 92.9487C84.2935 91.5564 85.7791 90.6987 87.3868 90.6987H106.613C108.221 90.6987 109.707 91.5564 110.51 92.9487L120.124 109.599C120.927 110.992 120.927 112.707 120.124 114.099L110.51 130.75C109.707 132.142 108.221 133 106.613 133H87.3868C85.7791 133 84.2935 132.142 83.4896 130.75L73.8764 114.099C73.0725 112.707 73.0725 110.992 73.8764 109.599Z" fill="#EBF7FF" stroke="#0068B3"/>
</svg>
