<svg width="100%" height="100%" viewBox="0 0 81 80" fill="none"
	xmlns="http://www.w3.org/2000/svg">
	<g filter="url(#filter0_d_47_3970)">
		<ellipse cx="36.5" cy="34.878" rx="31.5" ry="29.878" fill="#46B9FF"/>
		<path d="M67.5 34.878C67.5 51.0785 53.6461 64.2561 36.5 64.2561C19.3539 64.2561 5.5 51.0785 5.5 34.878C5.5 18.6776 19.3539 5.5 36.5 5.5C53.6461 5.5 67.5 18.6776 67.5 34.878Z" stroke="#1252DA"/>
	</g>
	<ellipse cx="36.5" cy="21.7391" rx="15.75" ry="15.2174" fill="#1E1E1E"/>
	<path d="M56.975 55.2174C56.975 52.4197 56.4454 49.6494 55.4165 47.0646C54.3875 44.4798 52.8793 42.1313 50.978 40.153C49.0768 38.1747 46.8196 36.6054 44.3355 35.5348C41.8513 34.4641 39.1888 33.9131 36.5 33.9131C33.8112 33.9131 31.1487 34.4641 28.6646 35.5348C26.1804 36.6054 23.9233 38.1747 22.022 40.153C20.1207 42.1313 18.6126 44.4799 17.5836 47.0646C16.5546 49.6494 16.025 52.4197 16.025 55.2174L36.5 55.2174H56.975Z" fill="#1E1E1E"/>
	<path d="M53.8251 53.6957C53.8251 51.2976 53.3769 48.9231 52.5063 46.7076C51.6356 44.492 50.3594 42.479 48.7507 40.7833C47.1419 39.0876 45.232 37.7425 43.13 36.8248C41.0281 35.9071 38.7752 35.4348 36.5 35.4348C34.2249 35.4348 31.972 35.9071 29.8701 36.8248C27.7681 37.7425 25.8582 39.0876 24.2494 40.7833C22.6406 42.479 21.3645 44.492 20.4938 46.7076C19.6232 48.9231 19.175 51.2976 19.175 53.6957L36.5 53.6957H53.8251Z" fill="#D9D9D9"/>
	<ellipse cx="31.775" cy="19.4565" rx="6.3" ry="8.36957" fill="#D9D9D9"/>
	<ellipse cx="41.2251" cy="19.4565" rx="6.3" ry="8.36957" fill="#D9D9D9"/>
	<ellipse cx="36.5" cy="28.5869" rx="12.6" ry="3.80435" fill="#E79111"/>
	<ellipse cx="39.6499" cy="20.2174" rx="1.575" ry="1.52174" fill="#1E1E1E"/>
	<ellipse cx="39.6499" cy="20.2174" rx="1.575" ry="1.52174" fill="#1E1E1E"/>
	<ellipse cx="39.6499" cy="20.2174" rx="1.575" ry="1.52174" fill="#1E1E1E"/>
	<ellipse cx="33.35" cy="20.2174" rx="1.575" ry="1.52174" fill="#1E1E1E"/>
	<ellipse cx="33.35" cy="20.2174" rx="1.575" ry="1.52174" fill="#1E1E1E"/>
	<ellipse cx="33.35" cy="20.2174" rx="1.575" ry="1.52174" fill="#1E1E1E"/>
</svg>
