<svg width="250" height="250" viewBox="0 0 250 250" fill="none" xmlns="http://www.w3.org/2000/svg">
<path d="M24.4467 186.797C24.8039 186.181 25.4634 185.802 26.1777 185.802L52.7606 185.802C53.477 185.802 54.1397 186.183 54.4986 186.802L67.786 209.711C68.1449 210.329 68.1453 211.091 67.787 211.709L54.4956 234.624C54.1384 235.24 53.4789 235.619 52.7646 235.619L26.1817 235.619C25.4652 235.619 24.8025 235.238 24.4437 234.619L11.1563 211.711C10.7974 211.092 10.797 210.33 11.1553 209.712L24.4467 186.797Z" fill="#46B9FF"/>
<path d="M195.504 186.797C195.862 186.181 196.521 185.802 197.235 185.802L223.818 185.802C224.535 185.802 225.197 186.183 225.556 186.802L238.844 209.711C239.203 210.329 239.203 211.091 238.845 211.709L225.553 234.624C225.196 235.24 224.537 235.619 223.822 235.619L197.239 235.619C196.523 235.619 195.86 235.238 195.501 234.619L182.214 211.711C181.855 211.092 181.855 210.33 182.213 209.712L195.504 186.797Z" fill="#46B9FF"/>
<path d="M109.976 186.797C110.333 186.181 110.992 185.802 111.707 185.802L138.289 185.802C139.006 185.802 139.669 186.183 140.027 186.802L153.315 209.711C153.674 210.329 153.674 211.091 153.316 211.709L140.024 234.624C139.667 235.24 139.008 235.619 138.293 235.619L111.711 235.619C110.994 235.619 110.331 235.238 109.973 234.619L96.6851 211.711C96.3263 211.092 96.3259 210.33 96.6841 209.712L109.976 186.797Z" fill="#46B9FF"/>
<path d="M24.4467 89.0063C24.8039 88.3905 25.4634 88.0115 26.1777 88.0115L52.7606 88.0114C53.477 88.0114 54.1397 88.3927 54.4986 89.0114L67.786 111.92C68.1449 112.539 68.1453 113.301 67.787 113.918L54.4956 136.834C54.1384 137.45 53.4789 137.829 52.7646 137.829L26.1817 137.829C25.4652 137.829 24.8025 137.447 24.4437 136.829L11.1563 113.92C10.7974 113.301 10.797 112.539 11.1553 111.922L24.4467 89.0063Z" fill="#46B9FF"/>
<path d="M195.504 89.0063C195.862 88.3905 196.521 88.0115 197.235 88.0115L223.818 88.0114C224.535 88.0114 225.197 88.3927 225.556 89.0114L238.844 111.92C239.203 112.539 239.203 113.301 238.845 113.918L225.553 136.834C225.196 137.45 224.537 137.829 223.822 137.829L197.239 137.829C196.523 137.829 195.86 137.447 195.501 136.829L182.214 113.92C181.855 113.301 181.855 112.539 182.213 111.922L195.504 89.0063Z" fill="#46B9FF"/>
<path d="M109.976 89.0063C110.333 88.3905 110.992 88.0115 111.707 88.0115L138.289 88.0114C139.006 88.0114 139.669 88.3927 140.027 89.0114L153.315 111.92C153.674 112.539 153.674 113.301 153.316 113.918L140.024 136.834C139.667 137.45 139.008 137.829 138.293 137.829L111.711 137.829C110.994 137.829 110.331 137.447 109.973 136.829L96.6851 113.92C96.3263 113.301 96.3259 112.539 96.6841 111.922L109.976 89.0063Z" fill="#46B9FF"/>
<path d="M24.4467 137.326C24.8039 136.711 25.4634 136.331 26.1777 136.331L52.7606 136.331C53.477 136.331 54.1397 136.713 54.4986 137.331L67.786 160.24C68.1449 160.859 68.1453 161.621 67.787 162.238L54.4956 185.154C54.1384 185.77 53.4789 186.149 52.7646 186.149L26.1817 186.149C25.4652 186.149 24.8025 185.767 24.4437 185.149L11.1563 162.24C10.7974 161.621 10.797 160.859 11.1553 160.242L24.4467 137.326Z" fill="#46B9FF"/>
<path d="M195.504 137.326C195.862 136.711 196.521 136.331 197.235 136.331L223.818 136.331C224.535 136.331 225.197 136.713 225.556 137.331L238.844 160.24C239.203 160.859 239.203 161.621 238.845 162.238L225.553 185.154C225.196 185.77 224.537 186.149 223.822 186.149L197.239 186.149C196.523 186.149 195.86 185.767 195.501 185.149L182.214 162.24C181.855 161.621 181.855 160.859 182.213 160.242L195.504 137.326Z" fill="#46B9FF"/>
<path d="M109.976 137.326C110.333 136.711 110.992 136.331 111.707 136.331L138.289 136.331C139.006 136.331 139.669 136.713 140.027 137.331L153.315 160.24C153.674 160.859 153.674 161.621 153.316 162.238L140.024 185.154C139.667 185.77 139.008 186.149 138.293 186.149L111.711 186.149C110.994 186.149 110.331 185.767 109.973 185.149L96.6851 162.24C96.3263 161.621 96.3259 160.859 96.6841 160.242L109.976 137.326Z" fill="#46B9FF"/>
<path d="M24.4467 39.5358C24.8039 38.92 25.4634 38.541 26.1777 38.541L52.7606 38.541C53.477 38.541 54.1397 38.9223 54.4986 39.541L67.786 62.4495C68.1449 63.0682 68.1453 63.8301 67.787 64.4478L54.4956 87.3632C54.1384 87.979 53.4789 88.358 52.7646 88.358L26.1817 88.3581C25.4652 88.3581 24.8025 87.9768 24.4437 87.3581L11.1563 64.4495C10.7974 63.8308 10.797 63.0689 11.1553 62.4512L24.4467 39.5358Z" fill="#46B9FF"/>
<path d="M195.504 39.5358C195.862 38.92 196.521 38.541 197.235 38.541L223.818 38.541C224.535 38.541 225.197 38.9223 225.556 39.541L238.844 62.4495C239.203 63.0682 239.203 63.8301 238.845 64.4478L225.553 87.3632C225.196 87.979 224.537 88.358 223.822 88.358L197.239 88.3581C196.523 88.3581 195.86 87.9768 195.501 87.3581L182.214 64.4495C181.855 63.8308 181.855 63.0689 182.213 62.4512L195.504 39.5358Z" fill="#46B9FF"/>
<path d="M109.976 39.5358C110.333 38.92 110.992 38.541 111.707 38.541L138.289 38.541C139.006 38.541 139.669 38.9223 140.027 39.541L153.315 62.4495C153.674 63.0682 153.674 63.8301 153.316 64.4478L140.024 87.3632C139.667 87.979 139.008 88.358 138.293 88.358L111.711 88.3581C110.994 88.3581 110.331 87.9768 109.973 87.3581L96.6851 64.4495C96.3263 63.8308 96.3259 63.0689 96.6841 62.4512L109.976 39.5358Z" fill="#46B9FF"/>
<path d="M67.2111 162.637C67.5683 162.021 68.2278 161.642 68.9422 161.642L95.525 161.642C96.2415 161.642 96.9042 162.023 97.263 162.642L110.55 185.551C110.909 186.169 110.91 186.931 110.551 187.549L97.26 210.464C96.9029 211.08 96.2433 211.459 95.529 211.459L68.9462 211.459C68.2297 211.459 67.567 211.078 67.2081 210.459L53.9207 187.551C53.5619 186.932 53.5615 186.17 53.9197 185.552L67.2111 162.637Z" fill="#46B9FF"/>
<path d="M152.74 162.637C153.097 162.021 153.757 161.642 154.471 161.642L181.054 161.642C181.77 161.642 182.433 162.023 182.792 162.642L196.079 185.551C196.438 186.169 196.439 186.931 196.08 187.549L182.789 210.464C182.432 211.08 181.772 211.459 181.058 211.459L154.475 211.459C153.759 211.459 153.096 211.078 152.737 210.459L139.45 187.551C139.091 186.932 139.09 186.17 139.449 185.552L152.74 162.637Z" fill="#46B9FF"/>
<path d="M67.2111 64.8463C67.5683 64.2305 68.2278 63.8514 68.9422 63.8514L95.525 63.8514C96.2415 63.8514 96.9042 64.2327 97.263 64.8514L110.55 87.76C110.909 88.3787 110.91 89.1406 110.551 89.7583L97.26 112.674C96.9029 113.29 96.2433 113.669 95.529 113.669L68.9462 113.669C68.2297 113.669 67.567 113.287 67.2081 112.669L53.9207 89.76C53.5619 89.1413 53.5615 88.3794 53.9197 87.7617L67.2111 64.8463Z" fill="#46B9FF"/>
<path d="M152.74 64.8463C153.097 64.2305 153.757 63.8514 154.471 63.8514L181.054 63.8514C181.77 63.8514 182.433 64.2327 182.792 64.8514L196.079 87.76C196.438 88.3787 196.439 89.1406 196.08 89.7583L182.789 112.674C182.432 113.29 181.772 113.669 181.058 113.669L154.475 113.669C153.759 113.669 153.096 113.287 152.737 112.669L139.45 89.76C139.091 89.1413 139.09 88.3794 139.449 87.7617L152.74 64.8463Z" fill="#46B9FF"/>
<path d="M67.2111 113.166C67.5683 112.55 68.2278 112.171 68.9422 112.171L95.525 112.171C96.2415 112.171 96.9042 112.553 97.263 113.171L110.55 136.08C110.909 136.699 110.91 137.461 110.551 138.078L97.26 160.994C96.9029 161.61 96.2433 161.989 95.529 161.989L68.9462 161.989C68.2297 161.989 67.567 161.607 67.2081 160.989L53.9207 138.08C53.5619 137.461 53.5615 136.699 53.9197 136.082L67.2111 113.166Z" fill="#46B9FF"/>
<path d="M152.74 113.166C153.097 112.55 153.757 112.171 154.471 112.171L181.054 112.171C181.77 112.171 182.433 112.553 182.792 113.171L196.079 136.08C196.438 136.699 196.439 137.461 196.08 138.078L182.789 160.994C182.432 161.61 181.772 161.989 181.058 161.989L154.475 161.989C153.759 161.989 153.096 161.607 152.737 160.989L139.45 138.08C139.091 137.461 139.09 136.699 139.449 136.082L152.74 113.166Z" fill="#46B9FF"/>
<path d="M67.2111 15.3758C67.5683 14.76 68.2278 14.3809 68.9422 14.3809L95.525 14.3809C96.2415 14.3809 96.9042 14.7622 97.263 15.3809L110.55 38.2895C110.909 38.9082 110.91 39.6701 110.551 40.2877L97.26 63.2032C96.9029 63.819 96.2433 64.198 95.529 64.198L68.9462 64.198C68.2297 64.198 67.567 63.8167 67.2081 63.198L53.9207 40.2895C53.5619 39.6708 53.5615 38.9089 53.9197 38.2912L67.2111 15.3758Z" fill="#46B9FF"/>
<path d="M152.74 15.3758C153.097 14.76 153.757 14.3809 154.471 14.3809L181.054 14.3809C181.77 14.3809 182.433 14.7622 182.792 15.3809L196.079 38.2895C196.438 38.9082 196.439 39.6701 196.08 40.2877L182.789 63.2032C182.432 63.819 181.772 64.198 181.058 64.198L154.475 64.198C153.759 64.198 153.096 63.8167 152.737 63.198L139.45 40.2895C139.091 39.6708 139.09 38.9089 139.449 38.2912L152.74 15.3758Z" fill="#46B9FF"/>
<g filter="url(#filter0_d_3_32)">
<circle cx="38.5" cy="63.5" r="17.5" fill="#46B9FF"/>
<circle cx="38.5" cy="63.5" r="17" stroke="#1252DA"/>
</g>
<g filter="url(#filter1_d_3_32)">
<circle cx="81.5" cy="39.5" r="17.5" fill="#46B9FF"/>
<circle cx="81.5" cy="39.5" r="17" stroke="#1252DA"/>
</g>
<g filter="url(#filter2_d_3_32)">
<circle cx="167.5" cy="39.5" r="17.5" fill="#46B9FF"/>
<circle cx="167.5" cy="39.5" r="17" stroke="#1252DA"/>
</g>
<g filter="url(#filter3_d_3_32)">
<circle cx="124.5" cy="63.5" r="17.5" fill="#46B9FF"/>
<circle cx="124.5" cy="63.5" r="17" stroke="#1252DA"/>
</g>
<g filter="url(#filter4_d_3_32)">
<circle cx="210.5" cy="63.5" r="17.5" fill="#46B9FF"/>
<circle cx="210.5" cy="63.5" r="17" stroke="#1252DA"/>
</g>
<g filter="url(#filter5_d_3_32)">
<circle cx="38.5" cy="113.5" r="17.5" fill="#46B9FF"/>
<circle cx="38.5" cy="113.5" r="17" stroke="#1252DA"/>
</g>
<g filter="url(#filter6_d_3_32)">
<circle cx="81.5" cy="89.5" r="17.5" fill="#46B9FF"/>
<circle cx="81.5" cy="89.5" r="17" stroke="#1252DA"/>
</g>
<g filter="url(#filter7_d_3_32)">
<circle cx="167.5" cy="89.5" r="17.5" fill="#46B9FF"/>
<circle cx="167.5" cy="89.5" r="17" stroke="#1252DA"/>
</g>
<g filter="url(#filter8_d_3_32)">
<circle cx="124.5" cy="113.5" r="17.5" fill="#46B9FF"/>
<circle cx="124.5" cy="113.5" r="17" stroke="#1252DA"/>
</g>
<g filter="url(#filter9_d_3_32)">
<circle cx="210.5" cy="113.5" r="17.5" fill="#46B9FF"/>
<circle cx="210.5" cy="113.5" r="17" stroke="#1252DA"/>
</g>
<g filter="url(#filter10_d_3_32)">
<circle cx="38.5" cy="161.5" r="17.5" fill="#46B9FF"/>
<circle cx="38.5" cy="161.5" r="17" stroke="#1252DA"/>
</g>
<g filter="url(#filter11_d_3_32)">
<circle cx="81.5" cy="137.5" r="17.5" fill="#46B9FF"/>
<circle cx="81.5" cy="137.5" r="17" stroke="#1252DA"/>
</g>
<g filter="url(#filter12_d_3_32)">
<circle cx="167.5" cy="137.5" r="17.5" fill="#46B9FF"/>
<circle cx="167.5" cy="137.5" r="17" stroke="#1252DA"/>
</g>
<g filter="url(#filter13_d_3_32)">
<circle cx="124.5" cy="161.5" r="17.5" fill="#46B9FF"/>
<circle cx="124.5" cy="161.5" r="17" stroke="#1252DA"/>
</g>
<g filter="url(#filter14_d_3_32)">
<circle cx="210.5" cy="161.5" r="17.5" fill="#46B9FF"/>
<circle cx="210.5" cy="161.5" r="17" stroke="#1252DA"/>
</g>
<g filter="url(#filter15_d_3_32)">
<circle cx="38.5" cy="211.5" r="17.5" fill="#46B9FF"/>
<circle cx="38.5" cy="211.5" r="17" stroke="#1252DA"/>
</g>
<g filter="url(#filter16_d_3_32)">
<circle cx="81.5" cy="187.5" r="17.5" fill="#46B9FF"/>
<circle cx="81.5" cy="187.5" r="17" stroke="#1252DA"/>
</g>
<g filter="url(#filter17_d_3_32)">
<circle cx="167.5" cy="187.5" r="17.5" fill="#46B9FF"/>
<circle cx="167.5" cy="187.5" r="17" stroke="#1252DA"/>
</g>
<g filter="url(#filter18_d_3_32)">
<circle cx="124.5" cy="211.5" r="17.5" fill="#46B9FF"/>
<circle cx="124.5" cy="211.5" r="17" stroke="#1252DA"/>
</g>
<g filter="url(#filter19_d_3_32)">
<circle cx="210.5" cy="211.5" r="17.5" fill="#46B9FF"/>
<circle cx="210.5" cy="211.5" r="17" stroke="#1252DA"/>
</g>
<defs>
<filter id="filter0_d_3_32" x="8" y="35" width="61" height="61" filterUnits="userSpaceOnUse" color-interpolation-filters="sRGB">
<feFlood flood-opacity="0" result="BackgroundImageFix"/>
<feColorMatrix in="SourceAlpha" type="matrix" values="0 0 0 0 0 0 0 0 0 0 0 0 0 0 0 0 0 0 127 0" result="hardAlpha"/>
<feMorphology radius="3" operator="dilate" in="SourceAlpha" result="effect1_dropShadow_3_32"/>
<feOffset dy="2"/>
<feGaussianBlur stdDeviation="5"/>
<feComposite in2="hardAlpha" operator="out"/>
<feColorMatrix type="matrix" values="0 0 0 0 0 0 0 0 0 0 0 0 0 0 0 0 0 0 0.2 0"/>
<feBlend mode="normal" in2="BackgroundImageFix" result="effect1_dropShadow_3_32"/>
<feBlend mode="normal" in="SourceGraphic" in2="effect1_dropShadow_3_32" result="shape"/>
</filter>
<filter id="filter1_d_3_32" x="51" y="11" width="61" height="61" filterUnits="userSpaceOnUse" color-interpolation-filters="sRGB">
<feFlood flood-opacity="0" result="BackgroundImageFix"/>
<feColorMatrix in="SourceAlpha" type="matrix" values="0 0 0 0 0 0 0 0 0 0 0 0 0 0 0 0 0 0 127 0" result="hardAlpha"/>
<feMorphology radius="3" operator="dilate" in="SourceAlpha" result="effect1_dropShadow_3_32"/>
<feOffset dy="2"/>
<feGaussianBlur stdDeviation="5"/>
<feComposite in2="hardAlpha" operator="out"/>
<feColorMatrix type="matrix" values="0 0 0 0 0 0 0 0 0 0 0 0 0 0 0 0 0 0 0.2 0"/>
<feBlend mode="normal" in2="BackgroundImageFix" result="effect1_dropShadow_3_32"/>
<feBlend mode="normal" in="SourceGraphic" in2="effect1_dropShadow_3_32" result="shape"/>
</filter>
<filter id="filter2_d_3_32" x="137" y="11" width="61" height="61" filterUnits="userSpaceOnUse" color-interpolation-filters="sRGB">
<feFlood flood-opacity="0" result="BackgroundImageFix"/>
<feColorMatrix in="SourceAlpha" type="matrix" values="0 0 0 0 0 0 0 0 0 0 0 0 0 0 0 0 0 0 127 0" result="hardAlpha"/>
<feMorphology radius="3" operator="dilate" in="SourceAlpha" result="effect1_dropShadow_3_32"/>
<feOffset dy="2"/>
<feGaussianBlur stdDeviation="5"/>
<feComposite in2="hardAlpha" operator="out"/>
<feColorMatrix type="matrix" values="0 0 0 0 0 0 0 0 0 0 0 0 0 0 0 0 0 0 0.2 0"/>
<feBlend mode="normal" in2="BackgroundImageFix" result="effect1_dropShadow_3_32"/>
<feBlend mode="normal" in="SourceGraphic" in2="effect1_dropShadow_3_32" result="shape"/>
</filter>
<filter id="filter3_d_3_32" x="94" y="35" width="61" height="61" filterUnits="userSpaceOnUse" color-interpolation-filters="sRGB">
<feFlood flood-opacity="0" result="BackgroundImageFix"/>
<feColorMatrix in="SourceAlpha" type="matrix" values="0 0 0 0 0 0 0 0 0 0 0 0 0 0 0 0 0 0 127 0" result="hardAlpha"/>
<feMorphology radius="3" operator="dilate" in="SourceAlpha" result="effect1_dropShadow_3_32"/>
<feOffset dy="2"/>
<feGaussianBlur stdDeviation="5"/>
<feComposite in2="hardAlpha" operator="out"/>
<feColorMatrix type="matrix" values="0 0 0 0 0 0 0 0 0 0 0 0 0 0 0 0 0 0 0.2 0"/>
<feBlend mode="normal" in2="BackgroundImageFix" result="effect1_dropShadow_3_32"/>
<feBlend mode="normal" in="SourceGraphic" in2="effect1_dropShadow_3_32" result="shape"/>
</filter>
<filter id="filter4_d_3_32" x="180" y="35" width="61" height="61" filterUnits="userSpaceOnUse" color-interpolation-filters="sRGB">
<feFlood flood-opacity="0" result="BackgroundImageFix"/>
<feColorMatrix in="SourceAlpha" type="matrix" values="0 0 0 0 0 0 0 0 0 0 0 0 0 0 0 0 0 0 127 0" result="hardAlpha"/>
<feMorphology radius="3" operator="dilate" in="SourceAlpha" result="effect1_dropShadow_3_32"/>
<feOffset dy="2"/>
<feGaussianBlur stdDeviation="5"/>
<feComposite in2="hardAlpha" operator="out"/>
<feColorMatrix type="matrix" values="0 0 0 0 0 0 0 0 0 0 0 0 0 0 0 0 0 0 0.2 0"/>
<feBlend mode="normal" in2="BackgroundImageFix" result="effect1_dropShadow_3_32"/>
<feBlend mode="normal" in="SourceGraphic" in2="effect1_dropShadow_3_32" result="shape"/>
</filter>
<filter id="filter5_d_3_32" x="8" y="85" width="61" height="61" filterUnits="userSpaceOnUse" color-interpolation-filters="sRGB">
<feFlood flood-opacity="0" result="BackgroundImageFix"/>
<feColorMatrix in="SourceAlpha" type="matrix" values="0 0 0 0 0 0 0 0 0 0 0 0 0 0 0 0 0 0 127 0" result="hardAlpha"/>
<feMorphology radius="3" operator="dilate" in="SourceAlpha" result="effect1_dropShadow_3_32"/>
<feOffset dy="2"/>
<feGaussianBlur stdDeviation="5"/>
<feComposite in2="hardAlpha" operator="out"/>
<feColorMatrix type="matrix" values="0 0 0 0 0 0 0 0 0 0 0 0 0 0 0 0 0 0 0.2 0"/>
<feBlend mode="normal" in2="BackgroundImageFix" result="effect1_dropShadow_3_32"/>
<feBlend mode="normal" in="SourceGraphic" in2="effect1_dropShadow_3_32" result="shape"/>
</filter>
<filter id="filter6_d_3_32" x="51" y="61" width="61" height="61" filterUnits="userSpaceOnUse" color-interpolation-filters="sRGB">
<feFlood flood-opacity="0" result="BackgroundImageFix"/>
<feColorMatrix in="SourceAlpha" type="matrix" values="0 0 0 0 0 0 0 0 0 0 0 0 0 0 0 0 0 0 127 0" result="hardAlpha"/>
<feMorphology radius="3" operator="dilate" in="SourceAlpha" result="effect1_dropShadow_3_32"/>
<feOffset dy="2"/>
<feGaussianBlur stdDeviation="5"/>
<feComposite in2="hardAlpha" operator="out"/>
<feColorMatrix type="matrix" values="0 0 0 0 0 0 0 0 0 0 0 0 0 0 0 0 0 0 0.2 0"/>
<feBlend mode="normal" in2="BackgroundImageFix" result="effect1_dropShadow_3_32"/>
<feBlend mode="normal" in="SourceGraphic" in2="effect1_dropShadow_3_32" result="shape"/>
</filter>
<filter id="filter7_d_3_32" x="137" y="61" width="61" height="61" filterUnits="userSpaceOnUse" color-interpolation-filters="sRGB">
<feFlood flood-opacity="0" result="BackgroundImageFix"/>
<feColorMatrix in="SourceAlpha" type="matrix" values="0 0 0 0 0 0 0 0 0 0 0 0 0 0 0 0 0 0 127 0" result="hardAlpha"/>
<feMorphology radius="3" operator="dilate" in="SourceAlpha" result="effect1_dropShadow_3_32"/>
<feOffset dy="2"/>
<feGaussianBlur stdDeviation="5"/>
<feComposite in2="hardAlpha" operator="out"/>
<feColorMatrix type="matrix" values="0 0 0 0 0 0 0 0 0 0 0 0 0 0 0 0 0 0 0.2 0"/>
<feBlend mode="normal" in2="BackgroundImageFix" result="effect1_dropShadow_3_32"/>
<feBlend mode="normal" in="SourceGraphic" in2="effect1_dropShadow_3_32" result="shape"/>
</filter>
<filter id="filter8_d_3_32" x="94" y="85" width="61" height="61" filterUnits="userSpaceOnUse" color-interpolation-filters="sRGB">
<feFlood flood-opacity="0" result="BackgroundImageFix"/>
<feColorMatrix in="SourceAlpha" type="matrix" values="0 0 0 0 0 0 0 0 0 0 0 0 0 0 0 0 0 0 127 0" result="hardAlpha"/>
<feMorphology radius="3" operator="dilate" in="SourceAlpha" result="effect1_dropShadow_3_32"/>
<feOffset dy="2"/>
<feGaussianBlur stdDeviation="5"/>
<feComposite in2="hardAlpha" operator="out"/>
<feColorMatrix type="matrix" values="0 0 0 0 0 0 0 0 0 0 0 0 0 0 0 0 0 0 0.2 0"/>
<feBlend mode="normal" in2="BackgroundImageFix" result="effect1_dropShadow_3_32"/>
<feBlend mode="normal" in="SourceGraphic" in2="effect1_dropShadow_3_32" result="shape"/>
</filter>
<filter id="filter9_d_3_32" x="180" y="85" width="61" height="61" filterUnits="userSpaceOnUse" color-interpolation-filters="sRGB">
<feFlood flood-opacity="0" result="BackgroundImageFix"/>
<feColorMatrix in="SourceAlpha" type="matrix" values="0 0 0 0 0 0 0 0 0 0 0 0 0 0 0 0 0 0 127 0" result="hardAlpha"/>
<feMorphology radius="3" operator="dilate" in="SourceAlpha" result="effect1_dropShadow_3_32"/>
<feOffset dy="2"/>
<feGaussianBlur stdDeviation="5"/>
<feComposite in2="hardAlpha" operator="out"/>
<feColorMatrix type="matrix" values="0 0 0 0 0 0 0 0 0 0 0 0 0 0 0 0 0 0 0.2 0"/>
<feBlend mode="normal" in2="BackgroundImageFix" result="effect1_dropShadow_3_32"/>
<feBlend mode="normal" in="SourceGraphic" in2="effect1_dropShadow_3_32" result="shape"/>
</filter>
<filter id="filter10_d_3_32" x="8" y="133" width="61" height="61" filterUnits="userSpaceOnUse" color-interpolation-filters="sRGB">
<feFlood flood-opacity="0" result="BackgroundImageFix"/>
<feColorMatrix in="SourceAlpha" type="matrix" values="0 0 0 0 0 0 0 0 0 0 0 0 0 0 0 0 0 0 127 0" result="hardAlpha"/>
<feMorphology radius="3" operator="dilate" in="SourceAlpha" result="effect1_dropShadow_3_32"/>
<feOffset dy="2"/>
<feGaussianBlur stdDeviation="5"/>
<feComposite in2="hardAlpha" operator="out"/>
<feColorMatrix type="matrix" values="0 0 0 0 0 0 0 0 0 0 0 0 0 0 0 0 0 0 0.2 0"/>
<feBlend mode="normal" in2="BackgroundImageFix" result="effect1_dropShadow_3_32"/>
<feBlend mode="normal" in="SourceGraphic" in2="effect1_dropShadow_3_32" result="shape"/>
</filter>
<filter id="filter11_d_3_32" x="51" y="109" width="61" height="61" filterUnits="userSpaceOnUse" color-interpolation-filters="sRGB">
<feFlood flood-opacity="0" result="BackgroundImageFix"/>
<feColorMatrix in="SourceAlpha" type="matrix" values="0 0 0 0 0 0 0 0 0 0 0 0 0 0 0 0 0 0 127 0" result="hardAlpha"/>
<feMorphology radius="3" operator="dilate" in="SourceAlpha" result="effect1_dropShadow_3_32"/>
<feOffset dy="2"/>
<feGaussianBlur stdDeviation="5"/>
<feComposite in2="hardAlpha" operator="out"/>
<feColorMatrix type="matrix" values="0 0 0 0 0 0 0 0 0 0 0 0 0 0 0 0 0 0 0.2 0"/>
<feBlend mode="normal" in2="BackgroundImageFix" result="effect1_dropShadow_3_32"/>
<feBlend mode="normal" in="SourceGraphic" in2="effect1_dropShadow_3_32" result="shape"/>
</filter>
<filter id="filter12_d_3_32" x="137" y="109" width="61" height="61" filterUnits="userSpaceOnUse" color-interpolation-filters="sRGB">
<feFlood flood-opacity="0" result="BackgroundImageFix"/>
<feColorMatrix in="SourceAlpha" type="matrix" values="0 0 0 0 0 0 0 0 0 0 0 0 0 0 0 0 0 0 127 0" result="hardAlpha"/>
<feMorphology radius="3" operator="dilate" in="SourceAlpha" result="effect1_dropShadow_3_32"/>
<feOffset dy="2"/>
<feGaussianBlur stdDeviation="5"/>
<feComposite in2="hardAlpha" operator="out"/>
<feColorMatrix type="matrix" values="0 0 0 0 0 0 0 0 0 0 0 0 0 0 0 0 0 0 0.2 0"/>
<feBlend mode="normal" in2="BackgroundImageFix" result="effect1_dropShadow_3_32"/>
<feBlend mode="normal" in="SourceGraphic" in2="effect1_dropShadow_3_32" result="shape"/>
</filter>
<filter id="filter13_d_3_32" x="94" y="133" width="61" height="61" filterUnits="userSpaceOnUse" color-interpolation-filters="sRGB">
<feFlood flood-opacity="0" result="BackgroundImageFix"/>
<feColorMatrix in="SourceAlpha" type="matrix" values="0 0 0 0 0 0 0 0 0 0 0 0 0 0 0 0 0 0 127 0" result="hardAlpha"/>
<feMorphology radius="3" operator="dilate" in="SourceAlpha" result="effect1_dropShadow_3_32"/>
<feOffset dy="2"/>
<feGaussianBlur stdDeviation="5"/>
<feComposite in2="hardAlpha" operator="out"/>
<feColorMatrix type="matrix" values="0 0 0 0 0 0 0 0 0 0 0 0 0 0 0 0 0 0 0.2 0"/>
<feBlend mode="normal" in2="BackgroundImageFix" result="effect1_dropShadow_3_32"/>
<feBlend mode="normal" in="SourceGraphic" in2="effect1_dropShadow_3_32" result="shape"/>
</filter>
<filter id="filter14_d_3_32" x="180" y="133" width="61" height="61" filterUnits="userSpaceOnUse" color-interpolation-filters="sRGB">
<feFlood flood-opacity="0" result="BackgroundImageFix"/>
<feColorMatrix in="SourceAlpha" type="matrix" values="0 0 0 0 0 0 0 0 0 0 0 0 0 0 0 0 0 0 127 0" result="hardAlpha"/>
<feMorphology radius="3" operator="dilate" in="SourceAlpha" result="effect1_dropShadow_3_32"/>
<feOffset dy="2"/>
<feGaussianBlur stdDeviation="5"/>
<feComposite in2="hardAlpha" operator="out"/>
<feColorMatrix type="matrix" values="0 0 0 0 0 0 0 0 0 0 0 0 0 0 0 0 0 0 0.2 0"/>
<feBlend mode="normal" in2="BackgroundImageFix" result="effect1_dropShadow_3_32"/>
<feBlend mode="normal" in="SourceGraphic" in2="effect1_dropShadow_3_32" result="shape"/>
</filter>
<filter id="filter15_d_3_32" x="8" y="183" width="61" height="61" filterUnits="userSpaceOnUse" color-interpolation-filters="sRGB">
<feFlood flood-opacity="0" result="BackgroundImageFix"/>
<feColorMatrix in="SourceAlpha" type="matrix" values="0 0 0 0 0 0 0 0 0 0 0 0 0 0 0 0 0 0 127 0" result="hardAlpha"/>
<feMorphology radius="3" operator="dilate" in="SourceAlpha" result="effect1_dropShadow_3_32"/>
<feOffset dy="2"/>
<feGaussianBlur stdDeviation="5"/>
<feComposite in2="hardAlpha" operator="out"/>
<feColorMatrix type="matrix" values="0 0 0 0 0 0 0 0 0 0 0 0 0 0 0 0 0 0 0.2 0"/>
<feBlend mode="normal" in2="BackgroundImageFix" result="effect1_dropShadow_3_32"/>
<feBlend mode="normal" in="SourceGraphic" in2="effect1_dropShadow_3_32" result="shape"/>
</filter>
<filter id="filter16_d_3_32" x="51" y="159" width="61" height="61" filterUnits="userSpaceOnUse" color-interpolation-filters="sRGB">
<feFlood flood-opacity="0" result="BackgroundImageFix"/>
<feColorMatrix in="SourceAlpha" type="matrix" values="0 0 0 0 0 0 0 0 0 0 0 0 0 0 0 0 0 0 127 0" result="hardAlpha"/>
<feMorphology radius="3" operator="dilate" in="SourceAlpha" result="effect1_dropShadow_3_32"/>
<feOffset dy="2"/>
<feGaussianBlur stdDeviation="5"/>
<feComposite in2="hardAlpha" operator="out"/>
<feColorMatrix type="matrix" values="0 0 0 0 0 0 0 0 0 0 0 0 0 0 0 0 0 0 0.2 0"/>
<feBlend mode="normal" in2="BackgroundImageFix" result="effect1_dropShadow_3_32"/>
<feBlend mode="normal" in="SourceGraphic" in2="effect1_dropShadow_3_32" result="shape"/>
</filter>
<filter id="filter17_d_3_32" x="137" y="159" width="61" height="61" filterUnits="userSpaceOnUse" color-interpolation-filters="sRGB">
<feFlood flood-opacity="0" result="BackgroundImageFix"/>
<feColorMatrix in="SourceAlpha" type="matrix" values="0 0 0 0 0 0 0 0 0 0 0 0 0 0 0 0 0 0 127 0" result="hardAlpha"/>
<feMorphology radius="3" operator="dilate" in="SourceAlpha" result="effect1_dropShadow_3_32"/>
<feOffset dy="2"/>
<feGaussianBlur stdDeviation="5"/>
<feComposite in2="hardAlpha" operator="out"/>
<feColorMatrix type="matrix" values="0 0 0 0 0 0 0 0 0 0 0 0 0 0 0 0 0 0 0.2 0"/>
<feBlend mode="normal" in2="BackgroundImageFix" result="effect1_dropShadow_3_32"/>
<feBlend mode="normal" in="SourceGraphic" in2="effect1_dropShadow_3_32" result="shape"/>
</filter>
<filter id="filter18_d_3_32" x="94" y="183" width="61" height="61" filterUnits="userSpaceOnUse" color-interpolation-filters="sRGB">
<feFlood flood-opacity="0" result="BackgroundImageFix"/>
<feColorMatrix in="SourceAlpha" type="matrix" values="0 0 0 0 0 0 0 0 0 0 0 0 0 0 0 0 0 0 127 0" result="hardAlpha"/>
<feMorphology radius="3" operator="dilate" in="SourceAlpha" result="effect1_dropShadow_3_32"/>
<feOffset dy="2"/>
<feGaussianBlur stdDeviation="5"/>
<feComposite in2="hardAlpha" operator="out"/>
<feColorMatrix type="matrix" values="0 0 0 0 0 0 0 0 0 0 0 0 0 0 0 0 0 0 0.2 0"/>
<feBlend mode="normal" in2="BackgroundImageFix" result="effect1_dropShadow_3_32"/>
<feBlend mode="normal" in="SourceGraphic" in2="effect1_dropShadow_3_32" result="shape"/>
</filter>
<filter id="filter19_d_3_32" x="180" y="183" width="61" height="61" filterUnits="userSpaceOnUse" color-interpolation-filters="sRGB">
<feFlood flood-opacity="0" result="BackgroundImageFix"/>
<feColorMatrix in="SourceAlpha" type="matrix" values="0 0 0 0 0 0 0 0 0 0 0 0 0 0 0 0 0 0 127 0" result="hardAlpha"/>
<feMorphology radius="3" operator="dilate" in="SourceAlpha" result="effect1_dropShadow_3_32"/>
<feOffset dy="2"/>
<feGaussianBlur stdDeviation="5"/>
<feComposite in2="hardAlpha" operator="out"/>
<feColorMatrix type="matrix" values="0 0 0 0 0 0 0 0 0 0 0 0 0 0 0 0 0 0 0.2 0"/>
<feBlend mode="normal" in2="BackgroundImageFix" result="effect1_dropShadow_3_32"/>
<feBlend mode="normal" in="SourceGraphic" in2="effect1_dropShadow_3_32" result="shape"/>
</filter>
</defs>
</svg>
