<svg width="40" height="46" viewBox="0 0 40 46" fill="none"
	xmlns="http://www.w3.org/2000/svg">
	<path d="M33 33C33 31.1615 32.6637 29.341 32.0104 27.6424C31.3571 25.9439 30.3995 24.4005 29.1924 23.1005C27.9852 21.8005 26.5521 20.7693 24.9749 20.0657C23.3977 19.3621 21.7072 19 20 19C18.2928 19 16.6023 19.3621 15.0251 20.0657C13.4479 20.7693 12.0148 21.8005 10.8076 23.1005C9.60045 24.4005 8.64288 25.9439 7.98957 27.6424C7.33625 29.341 7 31.1615 7 33L20 33H33Z" fill="#1E1E1E"/>
	<circle cx="20" cy="11" r="10" fill="#1E1E1E"/>
	<path d="M31 32C31 30.4241 30.7155 28.8637 30.1627 27.4078C29.6099 25.9519 28.7996 24.629 27.7782 23.5147C26.7567 22.4004 25.5441 21.5165 24.2095 20.9134C22.8749 20.3104 21.4445 20 20 20C18.5555 20 17.1251 20.3104 15.7905 20.9134C14.4559 21.5165 13.2433 22.4004 12.2218 23.5147C11.2004 24.629 10.3901 25.9519 9.83732 27.4078C9.28452 28.8637 9 30.4241 9 32L20 32H31Z" fill="#D9D9D9"/>
	<ellipse cx="17" cy="9.5" rx="4" ry="5.5" fill="#D9D9D9"/>
	<ellipse cx="23" cy="9.5" rx="4" ry="5.5" fill="#D9D9D9"/>
	<ellipse cx="20" cy="15.5" rx="8" ry="2.5" fill="#E79111"/>
	<circle cx="22" cy="10" r="1" fill="#1E1E1E"/>
	<circle cx="22" cy="10" r="1" fill="#1E1E1E"/>
	<circle cx="22" cy="10" r="1" fill="#1E1E1E"/>
	<circle cx="18" cy="10" r="1" fill="#1E1E1E"/>
	<circle cx="18" cy="10" r="1" fill="#1E1E1E"/>
	<circle cx="18" cy="10" r="1" fill="#1E1E1E"/>
</svg>
